<?xml version="1.0" encoding="utf-8"?>
<!-- Generator: Adobe Illustrator 16.0.0, SVG Export Plug-In . SVG Version: 6.00 Build 0)  -->
<!DOCTYPE svg PUBLIC "-//W3C//DTD SVG 1.1//EN" "http://www.w3.org/Graphics/SVG/1.1/DTD/svg11.dtd">
<svg version="1.1" id="Camada_1" xmlns="http://www.w3.org/2000/svg" xmlns:xlink="http://www.w3.org/1999/xlink" x="0px" y="0px"
	 width="128.5px" height="118.5px" viewBox="0 0 128.5 118.5" enable-background="new 0 0 128.5 118.5" xml:space="preserve">
<g>
	<g>
		<path fill="#EEA222" d="M127.534,63.334c0-33.288-26.987-60.274-60.274-60.274C33.977,3.064,6.99,30.047,6.99,63.334
			c0,22.268,12.106,41.668,30.068,52.104c8.729-1.533,19-2.62,30.822-2.62c11.47,0,21.383,1.026,29.813,2.481
			C115.525,104.836,127.534,85.512,127.534,63.334z"/>
		<path fill="#005332" d="M44.02,75.697c7.205,6.154,25.859-0.357,34.471-1.298c2.429-0.275,2.761,2.677,3.422,3.09
			c2.457,3.56,9.492,7.562,11.977,0.223c1.625,13.55,16.587-2.514,11.288-18.241c18.131,9.796,24.229-22.214-1.987-30.522
			c9.99-11.754-5.295-20.204-22.466-16.806c-3.698-11.15-16.972-8.612-22.519,4.249c-36.896-26.744-30.441,10.655-25.47,12.086
			c-14.077,0-26.744,9.163-12.642,15.484c-15.837,21.002,1.877,32.675,8.117,20.536c0.665,2.952,4.03,10.623,7.562,10.457
			C40.266,74.755,40.322,79.009,44.02,75.697z"/>
		<path fill="#FFFFFF" d="M38.753,73.628c-1.16-6.373-1.646-14.239-5.899-20.588c0.827,1.216,3.146,3.811,4.663,5.879
			c0.636,0.276,1.739-6.402,2.234-8.498c-0.167,2.348-0.718,11.483-0.329,13.716c0.523,3.009-0.146,4.886,1.261,9.495
			c0.495,1.684,1.391,5.596,2.165,7.141c0.397,2.643,2.209,4.059,3.175,5.826c1.407,2.595,2.826,4.342,6.876,3.693
			c1.744-1.813,1.654-2.619,1.553-4.395c0.482,1.212-0.422-1.185-0.422-1.326c0-1.792,0.54-3.324,0.377-5.117
			c-0.142-0.656,0.296,1.119,0.114,0.357c0.446-9.63,2.246-17.508,4.416-31.921c0.855-1.492,1.52-2.732,2.651-4.719
			c-0.608,3.864-3.037,16.753-3.284,19.178c-0.632,5.685-0.361,28.345,3.864,31.876c-0.389-2.951-0.304-12.585-0.304-16.587
			c-0.028-6.073,0.937-12.172,1.16-13.883c0.774-5.437,2.291-10.432,2.623-16.833c0.304,1.241,0.608,5.907,1.05,7.371
			c0.661-0.219,4.054-6.126,4.443-6.017c0.219,0.081-0.969,1.877-2.68,5.38c-3.889,7.809-4.663,18.545-4.525,28.478
			c0.053,3.037-0.333,6.679,0.442,9.383c0.965-2.98,1.407-6.791,2.733-10.348c1.378-3.669,1.625-9.661,2.457-12.613
			c2.429-5.77,8.117-11.782,12.723-20.199c-2.704,7.371-7.837,15.152-10.485,21.088c-1.354,3.089-1.521,6.041-1.131,8.193
			c5.713-6.239,17.966-19.871,20.698-32.537c0,2.923-2.343,7.534-1.435,8.442c1.326,0.057,4.14-1.464,7.148-2.899
			c-4.334,3.864-6.653,4.168-8.417,5.465c-4.967,5.851-7.525,11.466-10.505,15.938c-2.291,3.475-8.47,8.481-10.428,13.615
			c-1.354,3.479-1.09,8.279-2.25,11.206c-1.723,4.326-0.625,11.045,1.411,16.161c-4.147,0.013-8.441,0.171-12.212,0.418
			c1.135-2.87,0.616-6.637,0.479-8.048c-0.357-3.365-2.153-6.597-3.893-8.665c-2.725-0.863-5.66-4.634-8.084-8.17
			C41.174,84.998,39.666,78.734,38.753,73.628L38.753,73.628z M54.412,84.474c0-1.621,0.036-3.166,0.109-4.67
			c-1.014-4.226-2.579-9.809-3.256-13.57c-0.385-2.016-0.993-4.002-1.297-6.155c-0.333-2.457-0.028-2.538-0.053-5.575
			c-0.718,2.072-0.774,3.065-1.273,4.472c-2.676-1.82-4.026-2.595-5.466-3.313c2.21,2.206,4.278,3.917,5.38,6.098
			c1.436,2.814,1.658,6.184,2.234,9.881c0.223,1.383,0.275,2.761,0.523,4.306c0.45,2.717,2.116,7.371,3.138,9.941
			C54.432,85.476,54.412,85.026,54.412,84.474z"/>
	</g>
</g>
</svg>
