<?xml version="1.0" encoding="utf-8"?>
<!-- Generator: Adobe Illustrator 16.0.0, SVG Export Plug-In . SVG Version: 6.00 Build 0)  -->
<!DOCTYPE svg PUBLIC "-//W3C//DTD SVG 1.1//EN" "http://www.w3.org/Graphics/SVG/1.1/DTD/svg11.dtd">
<svg version="1.1" id="Layer_1" xmlns="http://www.w3.org/2000/svg" xmlns:xlink="http://www.w3.org/1999/xlink" x="0px" y="0px"
	 width="56.693px" height="56.693px" viewBox="0.706 -6.652 56.693 56.693" enable-background="new 0.706 -6.652 56.693 56.693"
	 xml:space="preserve">
<g>
	<path fill="#ED9E31" d="M56.758,22.916c0-15.285-12.391-27.678-27.677-27.678S1.405,7.631,1.405,22.916
		c0,10.226,5.559,19.133,13.807,23.925c4.009-0.704,8.726-1.201,14.153-1.201c5.267,0,9.82,0.471,13.69,1.138
		C51.244,41.973,56.758,33.099,56.758,22.916"/>
	<path fill="#005836" d="M18.408,28.611c3.308,2.825,11.874-0.163,15.829-0.597c1.116-0.129,1.268,1.229,1.572,1.42
		c1.127,1.636,4.358,3.474,5.5,0.103c0.747,6.224,7.615-1.154,5.182-8.377c8.327,4.5,11.126-10.2-0.912-14.015
		c4.587-5.399-2.433-9.279-10.316-7.721c-1.697-5.12-7.794-3.953-10.339,1.951c-16.946-12.28-13.98,4.894-11.697,5.552
		c-6.464,0-12.28,4.208-5.805,7.11c-7.273,9.646,0.861,15.004,3.725,9.427c0.306,1.356,1.852,4.88,3.475,4.806
		C16.684,28.181,16.71,30.132,18.408,28.611"/>
	<path fill="#FFFFFF" d="M15.99,27.661c-0.533-2.926-0.756-6.539-2.709-9.455c0.381,0.559,1.446,1.749,2.142,2.698
		c0.291,0.129,0.798-2.937,1.026-3.9c-0.075,1.077-0.327,5.272-0.152,6.297c0.242,1.383-0.064,2.244,0.581,4.36
		c0.228,0.773,0.64,2.57,0.995,3.279c0.18,1.214,1.013,1.862,1.458,2.674c0.645,1.19,1.297,1.995,3.157,1.695
		c0.799-0.831,0.759-1.203,0.714-2.018c0.22,0.558-0.193-0.544-0.193-0.609c0-0.824,0.249-1.524,0.171-2.35
		c-0.065-0.302,0.136,0.514,0.051,0.162c0.207-4.422,1.031-8.038,2.028-14.66c0.394-0.683,0.698-1.255,1.216-2.167
		c-0.28,1.775-1.394,7.693-1.508,8.808c-0.292,2.611-0.165,13.018,1.774,14.64c-0.179-1.356-0.14-5.779-0.14-7.617
		c-0.013-2.788,0.432-5.589,0.533-6.375c0.354-2.497,1.051-4.79,1.204-7.732c0.141,0.571,0.28,2.716,0.483,3.384
		c0.304-0.101,1.862-2.813,2.04-2.761c0.1,0.039-0.444,0.861-1.23,2.471c-1.787,3.586-2.142,8.516-2.078,13.079
		c0.024,1.395-0.15,3.066,0.203,4.311c0.443-1.369,0.646-3.119,1.255-4.754c0.634-1.684,0.748-4.436,1.128-5.791
		c1.115-2.65,3.727-5.414,5.843-9.277c-1.244,3.383-3.601,6.956-4.815,9.683c-0.623,1.419-0.7,2.773-0.52,3.763
		c2.623-2.864,8.249-9.124,9.505-14.939c0,1.342-1.078,3.458-0.659,3.875c0.609,0.028,1.9-0.67,3.281-1.33
		c-1.987,1.776-3.052,1.914-3.863,2.51c-2.281,2.686-3.458,5.266-4.827,7.32c-1.051,1.596-3.888,3.897-4.789,6.252
		c-0.622,1.6-0.5,3.804-1.031,5.146c-0.791,1.986-0.287,5.069,0.647,7.419c-1.904,0.006-3.877,0.078-5.608,0.192
		c0.522-1.318,0.283-3.049,0.222-3.696c-0.165-1.546-0.99-3.028-1.789-3.979c-1.252-0.397-2.598-2.129-3.71-3.753
		C17.101,32.882,16.407,30.006,15.99,27.661 M23.181,32.642c0-0.745,0.016-1.454,0.048-2.146c-0.466-1.938-1.184-4.504-1.495-6.232
		c-0.176-0.925-0.456-1.837-0.595-2.825c-0.152-1.13-0.013-1.166-0.024-2.561c-0.332,0.952-0.356,1.407-0.586,2.056
		c-1.228-0.839-1.848-1.194-2.505-1.524c1.012,1.012,1.963,1.8,2.47,2.8c0.659,1.294,0.758,2.841,1.026,4.537
		c0.101,0.634,0.126,1.269,0.242,1.979c0.205,1.248,0.969,3.387,1.44,4.567C23.188,33.101,23.181,32.894,23.181,32.642"/>
</g>
</svg>
