<?xml version="1.0" encoding="utf-8"?>
<!-- Generator: Adobe Illustrator 16.0.0, SVG Export Plug-In . SVG Version: 6.00 Build 0)  -->
<!DOCTYPE svg PUBLIC "-//W3C//DTD SVG 1.1//EN" "http://www.w3.org/Graphics/SVG/1.1/DTD/svg11.dtd">
<svg version="1.1" id="Layer_1" xmlns="http://www.w3.org/2000/svg" xmlns:xlink="http://www.w3.org/1999/xlink" x="0px" y="0px"
	 width="217.311px" height="50.439px" viewBox="0 0 217.311 50.439" enable-background="new 0 0 217.311 50.439"
	 xml:space="preserve">
<g>
	<path fill-rule="evenodd" clip-rule="evenodd" fill="#005836" d="M71.271,35.282c0,3.581-0.207,3.929-1.766,4.12l-1.56,0.192
		c-0.276,0.232-0.276,1.117,0,1.348c2.424-0.076,4.227-0.113,5.891-0.113c1.559,0,3.294,0.037,5.546,0.113
		c0.244-0.23,0.244-1.115,0-1.348l-1.387-0.192c-1.559-0.23-1.766-0.539-1.766-4.12V18.301c0-1.001,0.103-1.118,0.935-1.118h2.079
		c2.6,0,3.084,1.809,3.674,4.274c0.174,0.308,1.11,0.231,1.284-0.116c-0.07-2.195,0.171-5.313,0.519-6.624
		c-0.07-0.115-0.312-0.271-0.519-0.271c-0.209,0-0.313,0.04-0.453,0.116c-0.311,0.808-0.831,0.848-3.117,0.848H67.738
		c-2.634,0-2.738-0.154-2.911-0.809c-0.137-0.116-0.313-0.155-0.486-0.155c-0.171,0-0.347,0.077-0.484,0.193
		c-0.241,1.502-0.417,3.891-1.144,6.547c0.209,0.501,0.867,0.578,1.282,0.348c1.041-2.813,1.769-4.352,4.298-4.352h2.149
		c0.831,0,0.831,0.191,0.831,1.118V35.282z M92.657,22.375c0-1.188,0-1.251,0.952-1.251h2.312c1.415,0,2.281,0.384,2.829,0.993
		c0.377,0.451,0.781,1.413,1.1,2.535c0.287,0.291,0.951,0.225,1.067-0.126c-0.144-2.151-0.347-4.461-0.375-4.976
		c-0.375,0.065-2.022,0.099-3.871,0.099h-6.123c-1.383,0-2.799-0.034-4.159-0.099c-0.287,0.193-0.316,0.932-0.057,1.125l0.722,0.162
		c1.3,0.288,1.474,0.481,1.474,3.4v11.972c0,2.95-0.173,3.145-1.474,3.368L85.697,39.8c-0.23,0.161-0.23,0.931,0,1.123
		c2.167-0.063,3.581-0.095,4.966-0.095h3.756c2.367,0,5.14,0.031,6.67,0.095c0.406-0.866,1.098-3.466,1.214-5.134
		c-0.117-0.386-0.839-0.515-1.069-0.162c-1.589,3.628-2.569,3.725-5.083,3.725c-2.107,0-2.656-0.257-3.032-0.835
		c-0.346-0.547-0.462-1.573-0.462-3.049v-3.819c0-0.962,0.028-0.995,0.809-0.995h1.992c1.501,0,1.848,0.258,2.136,1.798l0.145,0.803
		c0.202,0.287,0.926,0.255,1.069-0.033c-0.06-1.026-0.088-2.181-0.088-3.402c0-1.219,0.029-2.374,0.088-3.401
		c-0.143-0.288-0.868-0.288-1.069-0.03l-0.145,0.8c-0.288,1.543-0.635,1.768-2.136,1.768h-1.992c-0.781,0-0.809-0.066-0.809-0.962
		V22.375z M106.057,36.208c0,2.95-0.171,3.176-1.471,3.433l-0.78,0.16c-0.232,0.161-0.232,0.931,0,1.123
		c1.5-0.063,2.771-0.095,4.216-0.095c1.386,0,2.714,0.031,4.247,0.095c0.201-0.192,0.201-0.962,0-1.123l-0.782-0.16
		c-1.3-0.257-1.471-0.482-1.471-3.433v-3.948c0-0.643,0.057-0.707,1.067-0.707c0.723,0,1.186,0.257,1.531,1.125
		c0.663,1.7,1.328,3.273,2.252,4.974c1.27,2.311,2.945,3.37,5.604,3.37c0.896,0,1.82-0.064,2.281-0.29
		c0.146-0.192,0.146-0.674-0.115-0.835c-0.433-0.031-1.184-0.223-1.935-0.896c-1.386-1.317-2.569-3.725-4.477-8.025
		c-0.145-0.353-0.145-0.544,0.144-0.705c1.328-0.74,3.063-1.956,3.063-4.813c0-2.052-0.868-3.658-2.542-4.749
		c-1.099-0.738-3.206-1.157-5.661-1.157c-2.742,0-4.998,0.129-7.163,0.29c-0.346,0.159-0.346,0.964-0.058,1.123l0.78,0.129
		c1.212,0.193,1.27,0.544,1.27,3.753V36.208z M110.016,22.665c0-1.541,0.057-1.638,1.24-1.638c2.254,0,3.783,1.861,3.783,4.75
		c0,1.894-0.548,2.92-1.038,3.465c-0.549,0.61-1.156,0.9-2.195,0.9c-1.705,0-1.79-0.097-1.79-1.22V22.665z M125.639,36.208
		c0,2.95-0.173,3.176-1.474,3.433l-0.778,0.16c-0.232,0.161-0.232,0.931,0,1.123c1.502-0.063,2.772-0.095,4.217-0.095
		c1.386,0,2.715,0.031,4.246,0.095c0.2-0.192,0.2-0.962,0-1.123l-0.78-0.16c-1.301-0.257-1.474-0.482-1.474-3.433v-3.948
		c0-0.643,0.058-0.707,1.066-0.707c0.725,0,1.188,0.257,1.533,1.125c0.665,1.7,1.328,3.273,2.254,4.974
		c1.271,2.311,2.945,3.37,5.601,3.37c0.895,0,1.821-0.064,2.282-0.29c0.146-0.192,0.146-0.674-0.113-0.835
		c-0.435-0.031-1.186-0.223-1.937-0.896c-1.386-1.317-2.57-3.725-4.479-8.025c-0.143-0.353-0.143-0.544,0.146-0.705
		c1.33-0.74,3.063-1.956,3.063-4.813c0-2.052-0.866-3.658-2.541-4.749c-1.098-0.738-3.205-1.157-5.662-1.157
		c-2.743,0-4.997,0.129-7.162,0.29c-0.347,0.159-0.347,0.964-0.061,1.123l0.782,0.129c1.213,0.193,1.271,0.544,1.271,3.753V36.208z
		 M129.596,22.665c0-1.541,0.058-1.638,1.243-1.638c2.252,0,3.781,1.861,3.781,4.75c0,1.894-0.548,2.92-1.039,3.465
		c-0.548,0.61-1.155,0.9-2.194,0.9c-1.704,0-1.791-0.097-1.791-1.22V22.665z M151.285,33.575h-3.233
		c-0.693,0-0.78,0.031-0.953,0.643l-1.068,3.72c-0.175,0.645-0.203,0.901-0.203,1.158c0,0.191,0.232,0.386,1.041,0.545l0.864,0.16
		c0.175,0.224,0.232,0.962-0.056,1.123c-1.011-0.063-2.167-0.063-3.382-0.095c-0.979,0-1.644,0.095-2.972,0.095
		c-0.319-0.192-0.29-0.866-0.088-1.123l0.779-0.096c0.693-0.097,1.271-0.353,1.764-1.604c0.49-1.283,1.009-2.825,1.789-5.135
		l2.6-7.83c0.664-2.022,1.214-3.145,1.126-4.076c1.387-0.353,2.455-1.926,2.513-1.926c0.375,0,0.55,0.161,0.663,0.642
		c0.232,0.932,0.578,2.117,1.301,4.396l3.929,12.58c0.605,1.926,0.866,2.663,1.935,2.856l1.099,0.192
		c0.173,0.161,0.23,0.931-0.03,1.123c-1.386-0.063-2.945-0.095-4.446-0.095c-1.444,0-2.572,0.031-3.899,0.095
		c-0.317-0.192-0.375-0.866-0.06-1.123l0.926-0.16c0.663-0.128,0.778-0.354,0.778-0.545c0-0.226-0.202-0.995-0.548-2.183
		l-0.78-2.761C152.528,33.639,152.296,33.575,151.285,33.575 M148.63,31.874h2.513c0.663,0,0.808-0.096,0.576-0.931l-0.751-2.601
		c-0.403-1.378-0.779-2.694-1.039-3.368c-0.29,0.707-0.752,2.055-1.184,3.529l-0.725,2.408
		C147.762,31.778,147.907,31.874,148.63,31.874 M176.929,33.626c0-4.237-2.74-6.471-4.889-7.74l-2.287-1.348
		c-1.732-1.001-3.155-2.619-3.155-4.391c0-1.925,1.25-3.581,3.537-3.581c2.495,0,3.984,2.813,4.574,4.775
		c0.313,0.387,1.179,0.348,1.352-0.116c0-2.58-0.346-4.659-0.623-5.507c-0.416-0.077-0.729-0.153-1.179-0.307
		c-1.387-0.461-2.808-0.616-3.951-0.616c-5.024,0-8.075,3.003-8.04,7.355c0,3.813,2.735,6.123,5.232,7.512
		c2.079,1.154,4.714,3.001,4.714,6.121c0,1.926-1.178,3.891-3.743,3.891c-2.947,0-5.268-3.545-5.962-6.047
		c-0.276-0.424-1.074-0.386-1.316,0.115c0,2.619,0.45,5.392,1.108,6.238c0.728,0.463,2.702,1.463,5.893,1.463
		C173.426,41.443,176.929,38.364,176.929,33.626 M181.525,32.291c0,3.499,0.636,5.872,2.137,7.253
		c1.56,1.413,3.523,1.797,5.719,1.797c2.339,0,4.448-0.802,5.718-2.31c1.589-1.957,1.849-4.718,1.849-7.733v-3.597
		c0-2.598,0.115-5.036,0.434-5.872c0.26-0.674,0.81-0.867,1.561-1.06l0.519-0.126c0.232-0.258,0.175-0.9,0-1.093
		c-1.097,0.065-2.165,0.099-3.233,0.099c-1.184,0-2.312-0.034-3.871-0.099c-0.173,0.193-0.23,0.835,0,1.093l0.78,0.161
		c0.779,0.159,1.416,0.352,1.675,1.025c0.317,0.835,0.433,3.274,0.433,5.872v3.885c0,4.396-1.126,7.99-4.822,7.99
		c-4.391,0-4.767-4.141-4.767-7.896v-7.412c0-2.984,0.173-3.242,1.472-3.499l0.695-0.126c0.23-0.194,0.23-0.9,0-1.093
		c-1.387,0.065-2.803,0.099-4.217,0.099c-1.386,0-2.83-0.034-4.218-0.099c-0.316,0.193-0.288,0.899-0.058,1.093l0.721,0.161
		c1.303,0.288,1.476,0.481,1.476,3.465V32.291z M207.577,24.269c0-2.984,0.173-3.242,1.472-3.465l0.751-0.129
		c0.231-0.193,0.231-0.932,0-1.125c-1.442,0.065-2.889,0.099-4.274,0.099c-1.387,0-2.83-0.034-4.332-0.099
		c-0.347,0.193-0.347,0.932-0.06,1.125l0.84,0.129c1.3,0.191,1.471,0.481,1.471,3.465v11.939c0,2.983-0.171,3.24-1.471,3.433
		l-1.098,0.16c-0.23,0.192-0.173,0.931,0.085,1.123c1.792-0.063,3.235-0.095,4.564-0.095h3.871c2.369,0,5.14,0.031,6.671,0.095
		c0.405-0.866,1.097-3.529,1.243-5.198c-0.202-0.386-0.868-0.513-1.1-0.193c-1.704,3.724-2.511,3.82-5.141,3.82
		c-2.109,0-2.628-0.257-3.003-0.804c-0.377-0.513-0.49-1.54-0.49-3.048V24.269z"/>
	<path fill-rule="evenodd" clip-rule="evenodd" fill="#ED9E31" d="M54.106,27.053C54.106,12.113,41.994,0,27.053,0
		S0,12.113,0,27.053c0,9.996,5.434,18.703,13.495,23.386c3.919-0.687,8.53-1.174,13.834-1.174c5.149,0,9.599,0.46,13.382,1.112
		C48.716,45.681,54.106,37.007,54.106,27.053"/>
	<path fill-rule="evenodd" clip-rule="evenodd" fill="#005836" d="M16.62,32.62c3.234,2.762,11.607-0.16,15.472-0.583
		c1.091-0.126,1.239,1.201,1.536,1.388c1.103,1.598,4.26,3.395,5.377,0.1c0.73,6.083,7.443-1.128,5.065-8.188
		c8.138,4.398,10.876-9.97-0.892-13.7C47.662,6.36,40.8,2.567,33.095,4.091c-1.659-5.004-7.618-3.864-10.106,1.907
		C6.425-6.005,9.323,10.781,11.555,11.425c-6.318,0-12.003,4.113-5.674,6.95c-7.109,9.427,0.841,14.666,3.641,9.215
		c0.299,1.325,1.81,4.769,3.396,4.697C14.936,32.199,14.96,34.106,16.62,32.62"/>
	<path fill-rule="evenodd" clip-rule="evenodd" fill="#FFFFFF" d="M14.257,31.691c-0.521-2.86-0.739-6.391-2.648-9.241
		c0.372,0.546,1.413,1.709,2.093,2.637c0.285,0.126,0.781-2.871,1.003-3.813c-0.073,1.053-0.319,5.153-0.148,6.155
		c0.236,1.352-0.064,2.194,0.567,4.262c0.223,0.756,0.625,2.513,0.972,3.205c0.177,1.188,0.99,1.821,1.425,2.614
		c0.631,1.164,1.268,1.95,3.086,1.658c0.781-0.813,0.742-1.177,0.698-1.973c0.215,0.545-0.19-0.532-0.19-0.596
		c0-0.805,0.244-1.49,0.168-2.297c-0.063-0.294,0.133,0.503,0.05,0.16c0.201-4.323,1.008-7.858,1.983-14.33
		c0.384-0.668,0.681-1.227,1.188-2.119c-0.273,1.736-1.362,7.52-1.473,8.61c-0.286,2.552-0.162,12.723,1.734,14.308
		c-0.175-1.325-0.137-5.648-0.137-7.444c-0.013-2.726,0.422-5.464,0.521-6.231c0.346-2.441,1.027-4.683,1.176-7.558
		c0.138,0.558,0.274,2.654,0.472,3.308c0.297-0.099,1.82-2.75,1.994-2.699c0.098,0.038-0.433,0.842-1.202,2.415
		c-1.747,3.506-2.094,8.325-2.031,12.784c0.023,1.364-0.148,2.998,0.198,4.213c0.433-1.337,0.631-3.048,1.227-4.646
		c0.619-1.646,0.73-4.335,1.102-5.66c1.09-2.59,3.643-5.291,5.712-9.068c-1.216,3.307-3.519,6.799-4.707,9.464
		c-0.608,1.388-0.684,2.711-0.508,3.679c2.564-2.801,8.063-8.919,9.29-14.604c0,1.313-1.053,3.381-0.643,3.789
		c0.595,0.027,1.857-0.656,3.207-1.3c-1.943,1.735-2.984,1.87-3.777,2.453c-2.229,2.626-3.379,5.147-4.717,7.155
		c-1.028,1.56-3.801,3.809-4.681,6.111c-0.608,1.563-0.488,3.717-1.008,5.03c-0.773,1.942-0.28,4.956,0.633,7.252
		c-1.861,0.006-3.79,0.077-5.481,0.188c0.51-1.288,0.276-2.979,0.216-3.613c-0.161-1.511-0.967-2.96-1.749-3.889
		c-1.223-0.388-2.539-2.081-3.627-3.668C15.343,36.794,14.664,33.983,14.257,31.691 M21.285,36.56c0-0.728,0.016-1.421,0.048-2.097
		c-0.456-1.896-1.157-4.403-1.462-6.092c-0.172-0.904-0.445-1.796-0.581-2.762c-0.148-1.104-0.012-1.14-0.023-2.503
		c-0.324,0.93-0.349,1.375-0.573,2.009c-1.201-0.82-1.807-1.167-2.45-1.489c0.99,0.989,1.919,1.759,2.415,2.737
		c0.644,1.265,0.742,2.776,1.003,4.435c0.099,0.62,0.124,1.24,0.237,1.934c0.2,1.22,0.947,3.31,1.407,4.464
		C21.293,37.009,21.285,36.806,21.285,36.56"/>
	<path fill="#005836" d="M141.326,39.674c0,0,0.144,0.079,0.496,0.058c0.353-0.021,1.084,0.37,1.084,0.37l-0.471,0.704l-0.554,0.11
		l-0.556,0.047l-0.576-0.204l-0.016-0.973L141.326,39.674z"/>
</g>
</svg>
